<?xml version="1.0" encoding="utf-8"?>
<!-- Generator: Adobe Illustrator 23.0.3, SVG Export Plug-In . SVG Version: 6.00 Build 0)  -->
<svg version="1.1" id="Layer_1" xmlns="http://www.w3.org/2000/svg" xmlns:xlink="http://www.w3.org/1999/xlink" x="0px" y="0px"
	 viewBox="0 0 649 649" style="enable-background:new 0 0 649 649;" xml:space="preserve">
<style type="text/css">
	.st0{fill:url(#SVGID_1_);}
</style>
<linearGradient id="SVGID_1_" gradientUnits="userSpaceOnUse" x1="20.0713" y1="324.1103" x2="628.5109" y2="324.1103">
	<stop  offset="0" style="stop-color:#804D85"/>
	<stop  offset="1" style="stop-color:#41BDBD"/>
</linearGradient>
<path class="st0" d="M471.2,305c-21.9,0-43.6,4.6-63.6,13.5V173.4c0-6.2-5-11.2-11.2-11.2h-14.3v-34.3c0-6.2-5-11.2-11.2-11.2h-25.1
	v-13.4c0-6.2-5-11.2-11.2-11.2c-6.2,0-11.2,5-11.2,11.2v13.4h-25.8c-6.2,0-11.2,5-11.2,11.2v34.3h-15v-44.5c0-6.2-5-11.2-11.2-11.2
	h-28.8V71.6c0-6.2-5-11.2-11.2-11.2h-64.5V39.9c0-6.2-5-11.2-11.2-11.2c-6.2,0-11.2,5-11.2,11.2v20.5H71.4c-6.2,0-11.2,5-11.2,11.2
	v34.9H31.3c-6.2,0-11.2,5-11.2,11.2v411.9c0,6.2,5,11.2,11.2,11.2H335c38.1,66.1,118.2,95.3,190,69.2
	C596.7,584,639.4,510.2,626.1,435C612.9,359.8,547.6,305,471.2,305z M82.6,82.9h126.3v23.7H82.6V82.9z M180.3,518.4h-24.7v-68.7
	h24.7V518.4z M133.2,518.4h-22v-68.7h22V518.4z M249,518.4h-46.2v-79.9c0-6.2-5-11.2-11.2-11.2H100c-6.2,0-11.2,5-11.2,11.2v79.9
	H42.5V128.9H249L249,518.4z M308.9,139.2h50.8v23h-50.8V139.2z M271.4,518.4V184.6h113.8v146.1c-8.1,5.3-15.7,11.4-22.7,18.1
	c-1.1-0.3-2.2-0.5-3.4-0.5h-60.9c-6.2,0-11.2,5-11.2,11.2c0,6.2,5,11.2,11.2,11.2h45.3c-6.6,9.1-12.1,18.9-16.6,29.2h-28.7
	c-6.2,0-11.2,5-11.2,11.2s5,11.2,11.2,11.2h21c-2.9,10.9-4.5,22.1-5,33.3h-16c-6.2,0-11.2,5-11.2,11.2c0,6.2,5,11.2,11.2,11.2h16.7
	c1.4,13.8,4.6,27.3,9.5,40.2H271.4z M471.2,597.1c-74.5,0-134.8-60.4-134.8-134.8c0-74.5,60.4-134.8,134.8-134.8
	s134.8,60.4,134.8,134.8C606,536.7,545.7,597,471.2,597.1L471.2,597.1z M77.8,247h136c6.2,0,11.2-5,11.2-11.2
	c0-6.2-5-11.2-11.2-11.2h-136c-6.2,0-11.2,5-11.2,11.2C66.5,242,71.6,247,77.8,247z M77.8,309.6h136c6.2,0,11.2-5,11.2-11.2
	c0-6.2-5-11.2-11.2-11.2h-136c-6.2,0-11.2,5-11.2,11.2C66.5,304.5,71.6,309.6,77.8,309.6z M77.8,372.1h136c6.2,0,11.2-5,11.2-11.2
	c0-6.2-5-11.2-11.2-11.2h-136c-6.2,0-11.2,5-11.2,11.2C66.5,367.1,71.6,372.1,77.8,372.1z M77.8,184.4h136c6.2,0,11.2-5,11.2-11.2
	c0-6.2-5-11.2-11.2-11.2h-136c-6.2,0-11.2,5-11.2,11.2C66.5,179.4,71.6,184.4,77.8,184.4z M298.1,315h58.5c6.2,0,11.2-5,11.2-11.2
	c0-6.2-5-11.2-11.2-11.2h-58.5c-6.2,0-11.2,5-11.2,11.2C286.9,310,291.9,315,298.1,315z M298.1,260.6h58.5c6.2,0,11.2-5,11.2-11.2
	c0-6.2-5-11.2-11.2-11.2h-58.5c-6.2,0-11.2,5-11.2,11.2C286.9,255.6,291.9,260.6,298.1,260.6z M531.2,383.1
	c-15.9-15.9-37.5-24.9-60-24.9c-22.5,0-44.1,9-60,24.9c-15.3,15.3-24.4,35.7-25.9,57.3c-0.8,11.9,1,23.8,5.1,34.9
	c4.3,11.5,10.9,22.1,19.5,31l53.1,56.6c2.1,2.3,5.1,3.5,8.2,3.5c3.1,0,6.1-1.3,8.2-3.5l53.1-56.6c8.5-8.9,15.1-19.4,19.5-30.9
	c4.1-11.2,5.9-23.1,5.1-34.9C555.7,418.8,546.5,398.5,531.2,383.1z M530.9,467.7c-3.3,8.7-8.3,16.6-14.7,23.3l-44.9,47.8l-44.9-47.8
	c-6.4-6.7-11.5-14.6-14.7-23.3c-3.1-8.2-4.3-17-3.8-25.7c1.1-16.2,7.9-31.4,19.4-42.9c11.7-11.7,27.5-18.3,44.1-18.3
	c16.5,0,32.4,6.6,44.1,18.3c11.4,11.5,18.3,26.8,19.4,42.9C535.2,450.7,533.9,459.4,530.9,467.7z M471.2,396.4
	c-23.7,0-43,19.7-43,43.9c0,24.2,19.3,43.9,43,43.9c23.7,0,43-19.7,43-43.9C514.2,416.1,494.9,396.4,471.2,396.4z M471.2,461.7
	c-11.3,0-20.6-9.6-20.6-21.4c0-11.8,9.2-21.4,20.6-21.4c11.3,0,20.6,9.6,20.6,21.4C491.8,452.1,482.6,461.7,471.2,461.7z"/>
</svg>
