<svg height="512" fill="#142038" viewBox="0 0 64 64" width="512" xmlns="http://www.w3.org/2000/svg"><g id="coding-setting-application-computer-currency"><path d="m32 24a4 4 0 1 0 4 4 4 4 0 0 0 -4-4zm0 6a2 2 0 1 1 2-2 2 2 0 0 1 -2 2z"/><path d="m61.83 60.45-6-9a1 1 0 0 0 -.83-.45h-18.55a17.712 17.712 0 0 1 -.45-3.04 16.025 16.025 0 0 1 .92-5.96h22.08a3.009 3.009 0 0 0 3-3v-34a3.009 3.009 0 0 0 -3-3h-54a3.009 3.009 0 0 0 -3 3v34a3.009 3.009 0 0 0 3 3h22.08a16 16 0 0 1 .92 5.95 17.681 17.681 0 0 1 -.45 3.05h-18.55a1 1 0 0 0 -.83.45l-6 9a.963.963 0 0 0 -.05 1.02.984.984 0 0 0 .88.53h58a.984.984 0 0 0 .88-.53.963.963 0 0 0 -.05-1.02zm-1.83-24.45h-7v-11a1 1 0 0 0 -1-1h-3v-2h6v4a1 1 0 0 0 1 1h4zm0-11h-3v-4a1 1 0 0 0 -1-1h-7v-2h3a1 1 0 0 0 1-1v-7h7zm-56-20a1 1 0 0 1 1-1h54a1 1 0 0 1 1 1v3h-8a1 1 0 0 0 -1 1v7h-2v-9a1 1 0 0 0 -1-1h-32a1 1 0 0 0 -1 1v4h-2v-2a1 1 0 0 0 -1-1h-8zm37.24 20.03-1.29-.32.69-1.15a1.014 1.014 0 0 0 -.15-1.22l-2.83-2.83a1.014 1.014 0 0 0 -1.22-.15l-1.15.69-.32-1.29a1 1 0 0 0 -.97-.76h-4a1 1 0 0 0 -.97.76l-.32 1.29-1.15-.69a1.014 1.014 0 0 0 -1.22.15l-2.83 2.83a1.014 1.014 0 0 0 -.15 1.22l.69 1.15-1.29.32a1 1 0 0 0 -.76.97v1h-5v-19h30v19h-5v-1a1 1 0 0 0 -.76-.97zm-3.7 6.14.98 1.62-1.73 1.73-1.62-.98a1.057 1.057 0 0 0 -.9-.07 1.02 1.02 0 0 0 -.59.69l-.46 1.84h-2.44l-.46-1.84a1 1 0 0 0 -1.49-.62l-1.62.98-1.73-1.73.98-1.62a1 1 0 0 0 -.62-1.49l-1.84-.46v-2.44l1.84-.46a1 1 0 0 0 .62-1.49l-.98-1.62 1.73-1.73 1.62.98a1 1 0 0 0 1.49-.62l.46-1.84h2.44l.46 1.84a1 1 0 0 0 1.49.62l1.62-.98 1.73 1.73-.98 1.62a1 1 0 0 0 .62 1.49l1.84.46v2.44l-1.84.46a1 1 0 0 0 -.62 1.49zm-33.54-21.17h7v2a1 1 0 0 0 1 1h3v2h-7a1 1 0 0 0 -1 1v9h-3zm0 17h4a1 1 0 0 0 1-1v-9h6v2h-3a1 1 0 0 0 -1 1v16h-7zm1 13a1 1 0 0 1 -1-1v-1h8a1 1 0 0 0 1-1v-16h2v7a1 1 0 0 0 1 1h6v1a1 1 0 0 0 .76.97l1.29.32-.69 1.14a1.027 1.027 0 0 0 .15 1.23l2.83 2.83a1.014 1.014 0 0 0 1.22.15l1.15-.69.32 1.29a1 1 0 0 0 .97.76h4a1 1 0 0 0 .97-.76l.32-1.29 1.15.69a1.014 1.014 0 0 0 1.22-.15l2.83-2.83a1.027 1.027 0 0 0 .15-1.23l-.69-1.14 1.29-.32a1 1 0 0 0 .76-.97v-1h6a1 1 0 0 0 1-1v-2h2v11a1 1 0 0 0 1 1h8v1a1 1 0 0 1 -1 1zm29.38 11h-4.76a19.812 19.812 0 0 0 .38-2.96 17.955 17.955 0 0 0 -.81-6.04h5.62a18.013 18.013 0 0 0 -.81 6.05 19.85 19.85 0 0 0 .38 2.95zm-29.51 9 4.67-7h36.92l4.67 7zm48.67 0-4.67-7h5.59l4.67 7z"/><path d="m9 57h2v2h-2z"/><path d="m12 57h2v2h-2z"/><path d="m15 57h2v2h-2z"/><path d="m18 57h2v2h-2z"/><path d="m21 57h2v2h-2z"/><path d="m24 57h2v2h-2z"/><path d="m27 57h2v2h-2z"/><path d="m30 57h2v2h-2z"/><path d="m33 57h2v2h-2z"/><path d="m36 57h2v2h-2z"/><path d="m39 57h2v2h-2z"/><path d="m12 54h2v2h-2z"/><path d="m15 54h2v2h-2z"/><path d="m18 54h2v2h-2z"/><path d="m21 54h2v2h-2z"/><path d="m24 54h2v2h-2z"/><path d="m27 54h2v2h-2z"/><path d="m30 54h2v2h-2z"/><path d="m33 54h2v2h-2z"/><path d="m36 54h2v2h-2z"/><path d="m39 54h2v2h-2z"/><path d="m42 57h2v2h-2z"/><path d="m42 54h2v2h-2z"/><path d="m45 57h2v2h-2z"/><path d="m19 10h2v2h-2z"/><path d="m23 10h9v2h-9z"/><path d="m34 10h11v2h-11z"/><path d="m19 14h13v2h-13z"/><path d="m34 14h11v2h-11z"/></g></svg>